# xmcd
# 
# Track frame offsets:
#     150
#     16048
#     30076
#     46961
#     61338
#     74733
#     98399
#     120464
#     143078
#     160460
#     183216
#     198720
#     218556
#     233175
#     248155
# 
# Disc length: 3459
# 
# Revision: 0
# Processed by: cddbd v1.5.2PL0 Copyright (c) Steve Scherf et al.
# Submitted via: fre:ac v1.0.31
# 
DISCID=c20d810f
DTITLE=Toto Lovecchio - Carezze
DYEAR=2011
DGENRE=Folk
TTITLE0=fiera
TTITLE1=Carezza
TTITLE2=Ventu
TTITLE3=Nulla
TTITLE4=Mi godu stu jornu
TTITLE5=Ricomincer
TTITLE6=oil
TTITLE7=Babel
TTITLE8=Vorrei
TTITLE9=Tu non sai
TTITLE10=Canzone per Yvonne
TTITLE11=parrari
TTITLE12=voluto
TTITLE13=Soffia il vento
TTITLE14=Guarda la luna
EXTD=
EXTT0=
EXTT1=
EXTT2=
EXTT3=
EXTT4=
EXTT5=
EXTT6=
EXTT7=
EXTT8=
EXTT9=
EXTT10=
EXTT11=
EXTT12=
EXTT13=
EXTT14=
PLAYORDER=
